<svg width="309" height="135" viewBox="0 0 309 135" fill="none" xmlns="http://www.w3.org/2000/svg">
<path d="M209.575 112.694L213.419 95.4106H219.176C220.358 95.4106 221.364 95.6018 222.185 95.9771C223.006 96.3523 223.587 96.9259 223.927 97.6976C224.274 98.4623 224.316 99.404 224.054 100.523C223.75 101.889 222.872 102.973 221.427 103.78C222.142 104.19 222.645 104.743 222.928 105.437C223.212 106.13 223.24 106.973 223.02 107.978C222.673 109.494 221.902 110.655 220.712 111.469C219.523 112.283 218.057 112.694 216.308 112.694H209.575ZM213.54 109.706H216.457C217.314 109.706 218.036 109.487 218.631 109.055C219.225 108.616 219.572 108 219.686 107.192C219.806 106.569 219.657 106.081 219.261 105.734C218.857 105.387 218.241 105.217 217.399 105.217H214.531L213.54 109.706ZM215.154 102.442H217.696C218.567 102.442 219.275 102.229 219.806 101.797C220.337 101.365 220.663 100.778 220.769 100.02C220.868 99.3969 220.733 98.9155 220.365 98.5898C219.997 98.2641 219.409 98.0941 218.602 98.0941H216.11L215.154 102.442Z" fill="#00377D"/>
<path d="M225.557 117.926C225.111 117.926 224.636 117.841 224.141 117.664C223.638 117.494 223.206 117.289 222.838 117.055L224.587 114.414C225.075 114.747 225.507 114.91 225.868 114.91C226.229 114.91 226.569 114.818 226.881 114.626C227.192 114.435 227.468 114.152 227.709 113.777L229.925 110.371L236.085 100.345H239.689L231.094 113.777C230.556 114.598 230.032 115.327 229.529 115.95C229.026 116.574 228.46 117.062 227.83 117.409C227.206 117.756 226.449 117.926 225.557 117.926ZM228.566 112.693L225.67 100.345H229.224L231.115 110.371L231.674 112.693H228.566Z" fill="#00377D"/>
<path d="M304.516 97.0318C297.811 91.1126 282.964 83.1612 271.522 79.6281C262.232 76.7605 253.658 82.4107 251.137 91.3038C249.657 96.522 248.475 101.839 247.597 107.228C246.769 112.333 246.245 116.992 246.018 121.948C245.593 131.294 252.829 136.902 262.083 134.409C276.124 130.628 289.973 124.157 302.109 115.937C310.365 110.35 309.728 101.627 304.516 97.0318Z" fill="#00377D"/>
<path d="M266.679 97.5564L266.58 98.2432C265.554 104.97 264.152 107.221 263.309 106.895C261.695 106.265 262.785 100.665 263.691 97.5564H257.645C256.937 99.985 256.476 103.469 256.653 105.671C256.88 108.496 258.48 111.038 261.319 111.038C262.778 111.038 264.095 110.266 265.221 108.602L264.399 115.668H268.959L272.825 97.5564H266.679Z" fill="#FFD100"/>
<path d="M263.351 120.971H268.23L269.023 117.381H263.755L263.351 120.971Z" fill="#FFD100"/>
<path d="M293.626 103.101C295.155 103.101 296.451 103.617 297.308 104.049L297.789 100.622C296.862 100.339 295.481 99.9143 293.534 99.9143C289.717 99.9143 286.984 101.43 287.041 104.262C287.119 108.092 292.167 107.738 292.188 108.751C292.196 109.055 291.806 109.246 290.964 109.246C289.859 109.246 288.138 108.942 286.673 107.944L286.17 111.724C287.714 112.383 289.349 112.673 290.879 112.673C294.907 112.673 297.478 110.875 297.414 108.064C297.336 104.184 292.288 104.545 292.266 103.575C292.259 103.221 292.889 103.101 293.626 103.101Z" fill="#FFD100"/>
<path d="M281.398 100.147L281.264 101.138C280.563 100.331 279.656 99.9065 278.29 99.9065C274.233 99.9065 272.024 103.666 272.109 107.681C272.179 111.157 273.9 112.665 276.527 112.665C277.922 112.665 278.913 112.241 279.848 111.433L279.734 112.425H284.712L286.404 100.147H281.398ZM278.488 109.486C277.723 109.486 277.263 108.849 277.235 107.525C277.2 105.727 277.936 103.107 279.352 103.107C280.145 103.107 280.605 103.765 280.634 105.139C280.676 106.909 279.94 109.486 278.488 109.486Z" fill="#FFD100"/>
<path d="M137.672 0H112.798L108.989 17.9135H135.781L137.672 0Z" fill="#00377D"/>
<path d="M246.045 22.7415H224.634L224.202 23.5345C219.536 32.0593 216.159 36.3784 214.141 36.3784C213.836 36.3784 211.153 36.0102 209.376 24.0159L209.185 22.7415H175.942L175.51 23.5203C170.844 32.0522 167.46 36.3713 165.442 36.3713C165.137 36.3713 162.454 36.0031 160.67 24.0089L160.478 22.7344H138.069L138.529 24.5895C140.809 33.7161 144.505 43.4517 148.456 50.7233C142.013 58.9296 136.235 67.6456 131.293 76.6377L130.075 78.8539H151.486L151.911 78.075C156.577 69.5431 159.961 65.217 161.979 65.217C162.284 65.217 164.967 65.5922 166.745 77.5794L166.936 78.8539H200.178L200.603 78.075C205.269 69.5431 208.654 65.217 210.672 65.217C210.976 65.217 213.667 65.5922 215.444 77.5794L215.635 78.8539H238.044L237.584 76.9988C235.304 67.8792 231.608 58.1436 227.665 50.8649C234.115 42.6516 239.885 33.9356 244.828 24.9505L246.045 22.7415ZM197.155 50.7375C193.14 55.8496 189.338 61.2448 185.826 66.7888C183.808 60.9545 181.394 55.361 178.965 50.8791C182.98 45.7741 186.782 40.3788 190.287 34.8278C192.319 40.662 194.726 46.2556 197.155 50.7375Z" fill="#00377D"/>
<path d="M95.7204 5.14137C94.2901 3.76068 92.5413 2.64197 90.5517 1.82772C88.0169 0.716095 85.3263 0.149658 82.5295 0.149658L81.7294 0.170899C81.4675 0.163818 81.2338 0.142579 80.9577 0.15674C77.7007 0.0859358 74.2667 0.978072 71.0734 2.76942C68.2979 4.23507 65.8055 6.31671 63.8797 8.76654C63.7947 8.86567 63.7097 8.9648 63.6248 9.071C59.9217 3.47038 53.783 0.149658 47.0141 0.149658L46.2281 0.177981C44.3518 0.128418 42.5322 0.305428 40.8116 0.680691C40.0682 0.864782 39.261 1.14092 38.4468 1.50202C35.3172 2.62073 32.4567 4.4404 30.1131 6.79818L27.3163 0.163822H11.2154L11.1375 0.673614C9.28953 12.7245 7.41321 26.3897 5.59354 39.6018C3.80219 52.644 1.94712 66.1322 0.106208 78.1831L0 78.8699H22.4308L27.8686 38.2919C29.1006 32.1036 30.3751 25.7029 35.3597 21.7945C36.8749 20.3431 39.6929 19.7129 41.5763 21.2069C43.6367 23.0195 43.4031 25.6534 43.1057 28.9883L36.4501 78.8699H57.9463L63.5115 37.2865C64.786 31.4735 66.0958 25.4622 70.7194 21.8795C72.4824 20.3997 75.1446 19.6209 77.0988 21.2069C79.1026 22.9203 78.8973 25.5826 78.6707 28.6342L71.9726 78.8628H93.7733L102.213 23.0195C103.233 16.3355 100.804 9.64452 95.7204 5.14137Z" fill="#00377D"/>
<path d="M109.938 22.7422L101.328 78.8688H125.366L133.983 22.7422H109.938Z" fill="#00377D"/>
</svg>
